<mxfile host="app.diagrams.net" modified="2022-03-21T18:57:39.674Z" agent="5.0 (Windows NT 10.0; Win64; x64) AppleWebKit/537.36 (KHTML, like Gecko) Chrome/99.0.4844.74 Safari/537.36" etag="EkGm5lanbErAFoANf0ga" version="17.1.3" type="github">
  <diagram id="88-n9VoworjiJ0DwcDbS" name="Page-1">
    <mxGraphModel dx="1483" dy="781" grid="1" gridSize="10" guides="1" tooltips="1" connect="1" arrows="1" fold="1" page="1" pageScale="1" pageWidth="827" pageHeight="1169" math="0" shadow="0">
      <root>
        <mxCell id="0" />
        <mxCell id="1" parent="0" />
        <mxCell id="4Dx3WZbP61t2vSIbmsnp-1" value=":client" style="shape=rect;html=1;whiteSpace=wrap;align=center;" vertex="1" parent="1">
          <mxGeometry x="180" y="80" width="100" height="30" as="geometry" />
        </mxCell>
        <mxCell id="4Dx3WZbP61t2vSIbmsnp-2" value=":systeme" style="shape=rect;html=1;whiteSpace=wrap;align=center;" vertex="1" parent="1">
          <mxGeometry x="540" y="80" width="100" height="30" as="geometry" />
        </mxCell>
        <mxCell id="4Dx3WZbP61t2vSIbmsnp-3" value="" style="edgeStyle=none;dashed=1;html=1;endArrow=none;rounded=0;startArrow=none;" edge="1" source="4Dx3WZbP61t2vSIbmsnp-19" parent="1">
          <mxGeometry relative="1" as="geometry">
            <mxPoint x="230" y="680" as="targetPoint" />
          </mxGeometry>
        </mxCell>
        <mxCell id="4Dx3WZbP61t2vSIbmsnp-4" value="" style="edgeStyle=none;dashed=1;html=1;endArrow=none;rounded=0;startArrow=none;" edge="1" source="4Dx3WZbP61t2vSIbmsnp-9" parent="1">
          <mxGeometry relative="1" as="geometry">
            <mxPoint x="590" y="620" as="targetPoint" />
          </mxGeometry>
        </mxCell>
        <mxCell id="4Dx3WZbP61t2vSIbmsnp-5" value="1:Saisir&amp;nbsp; email et mot de passe" style="edgeStyle=none;html=1;endArrow=open;verticalAlign=bottom;endSize=12;rounded=0;entryX=0;entryY=0;entryDx=0;entryDy=0;" edge="1" parent="1" target="4Dx3WZbP61t2vSIbmsnp-9">
          <mxGeometry relative="1" as="geometry">
            <mxPoint x="230" y="150" as="sourcePoint" />
            <mxPoint x="590" y="150" as="targetPoint" />
          </mxGeometry>
        </mxCell>
        <mxCell id="4Dx3WZbP61t2vSIbmsnp-6" value="3:Message d&#39;erreur" style="edgeStyle=none;html=1;endArrow=block;verticalAlign=bottom;endSize=12;endFill=1;rounded=0;exitX=0.06;exitY=0.171;exitDx=0;exitDy=0;entryX=1;entryY=0;entryDx=0;entryDy=0;exitPerimeter=0;" edge="1" parent="1" source="4Dx3WZbP61t2vSIbmsnp-9" target="4Dx3WZbP61t2vSIbmsnp-19">
          <mxGeometry relative="1" as="geometry">
            <mxPoint x="440" y="239.5" as="sourcePoint" />
            <mxPoint x="230" y="240" as="targetPoint" />
          </mxGeometry>
        </mxCell>
        <mxCell id="4Dx3WZbP61t2vSIbmsnp-17" value="2:Verifier la validité &lt;br&gt;d&#39;email et mot de passe" style="edgeStyle=orthogonalEdgeStyle;rounded=0;orthogonalLoop=1;jettySize=auto;html=1;exitX=1;exitY=0;exitDx=0;exitDy=0;entryX=1;entryY=0;entryDx=0;entryDy=0;" edge="1" parent="1">
          <mxGeometry x="0.1429" y="60" relative="1" as="geometry">
            <mxPoint x="600" y="150" as="sourcePoint" />
            <mxPoint x="610" y="170" as="targetPoint" />
            <Array as="points">
              <mxPoint x="630" y="150" />
              <mxPoint x="630" y="170" />
            </Array>
            <mxPoint as="offset" />
          </mxGeometry>
        </mxCell>
        <mxCell id="4Dx3WZbP61t2vSIbmsnp-9" value="" style="shape=rect;html=1;fillColor=#eeeeee;" vertex="1" parent="1">
          <mxGeometry x="580" y="150" width="20" height="520" as="geometry" />
        </mxCell>
        <mxCell id="4Dx3WZbP61t2vSIbmsnp-13" value="" style="edgeStyle=none;dashed=1;html=1;endArrow=none;rounded=0;" edge="1" parent="1" source="4Dx3WZbP61t2vSIbmsnp-2" target="4Dx3WZbP61t2vSIbmsnp-9">
          <mxGeometry relative="1" as="geometry">
            <mxPoint x="590" y="350" as="targetPoint" />
            <mxPoint x="590" y="110" as="sourcePoint" />
          </mxGeometry>
        </mxCell>
        <mxCell id="4Dx3WZbP61t2vSIbmsnp-16" value="" style="shape=rect;html=1;fillColor=#eeeeee;" vertex="1" parent="1">
          <mxGeometry x="590" y="170" width="20" height="40" as="geometry" />
        </mxCell>
        <mxCell id="4Dx3WZbP61t2vSIbmsnp-18" value="" style="edgeStyle=none;html=1;endArrow=none;verticalAlign=bottom;dashed=1;strokeWidth=2;rounded=0;" edge="1" parent="1">
          <mxGeometry width="160" relative="1" as="geometry">
            <mxPoint x="130" y="320" as="sourcePoint" />
            <mxPoint x="710" y="320" as="targetPoint" />
          </mxGeometry>
        </mxCell>
        <mxCell id="4Dx3WZbP61t2vSIbmsnp-19" value="" style="shape=rect;html=1;fillColor=#eeeeee;" vertex="1" parent="1">
          <mxGeometry x="220" y="240" width="20" height="50" as="geometry" />
        </mxCell>
        <mxCell id="4Dx3WZbP61t2vSIbmsnp-21" value="" style="edgeStyle=none;dashed=1;html=1;endArrow=none;rounded=0;" edge="1" parent="1" source="4Dx3WZbP61t2vSIbmsnp-1" target="4Dx3WZbP61t2vSIbmsnp-19">
          <mxGeometry relative="1" as="geometry">
            <mxPoint x="230" y="350" as="targetPoint" />
            <mxPoint x="230" y="110" as="sourcePoint" />
          </mxGeometry>
        </mxCell>
        <mxCell id="4Dx3WZbP61t2vSIbmsnp-22" value="4:Naviguer vers page d&#39;informations personnelles" style="edgeStyle=none;html=1;endArrow=block;verticalAlign=bottom;endSize=12;endFill=1;rounded=0;entryX=1;entryY=0;entryDx=0;entryDy=0;" edge="1" parent="1" target="4Dx3WZbP61t2vSIbmsnp-23">
          <mxGeometry relative="1" as="geometry">
            <mxPoint x="580" y="370" as="sourcePoint" />
            <mxPoint x="230" y="370" as="targetPoint" />
          </mxGeometry>
        </mxCell>
        <mxCell id="4Dx3WZbP61t2vSIbmsnp-23" value="" style="shape=rect;html=1;fillColor=#eeeeee;" vertex="1" parent="1">
          <mxGeometry x="220" y="370" width="20" height="50" as="geometry" />
        </mxCell>
        <mxCell id="4Dx3WZbP61t2vSIbmsnp-24" value="[invalide]" style="text;html=1;align=center;verticalAlign=middle;resizable=0;points=[];autosize=1;strokeColor=none;fillColor=none;" vertex="1" parent="1">
          <mxGeometry x="160" y="240" width="60" height="20" as="geometry" />
        </mxCell>
        <mxCell id="4Dx3WZbP61t2vSIbmsnp-25" value="[valide]" style="text;html=1;align=center;verticalAlign=middle;resizable=0;points=[];autosize=1;strokeColor=none;fillColor=none;" vertex="1" parent="1">
          <mxGeometry x="160" y="370" width="50" height="20" as="geometry" />
        </mxCell>
        <mxCell id="4Dx3WZbP61t2vSIbmsnp-26" value="5:Saisir poids,taille,sexe,age" style="edgeStyle=none;html=1;endArrow=open;verticalAlign=bottom;endSize=12;rounded=0;" edge="1" parent="1">
          <mxGeometry relative="1" as="geometry">
            <mxPoint x="230" y="490" as="sourcePoint" />
            <mxPoint x="580" y="490" as="targetPoint" />
          </mxGeometry>
        </mxCell>
        <mxCell id="4Dx3WZbP61t2vSIbmsnp-27" value="7:Naviguer vers page d&#39;acceuile&amp;nbsp;" style="edgeStyle=none;html=1;endArrow=block;verticalAlign=bottom;endSize=12;endFill=1;rounded=0;exitX=-0.18;exitY=0.307;exitDx=0;exitDy=0;entryX=1;entryY=0;entryDx=0;entryDy=0;exitPerimeter=0;" edge="1" parent="1" target="4Dx3WZbP61t2vSIbmsnp-29">
          <mxGeometry relative="1" as="geometry">
            <mxPoint x="576.4000000000001" y="587.1" as="sourcePoint" />
            <mxPoint x="230" y="585" as="targetPoint" />
          </mxGeometry>
        </mxCell>
        <mxCell id="4Dx3WZbP61t2vSIbmsnp-29" value="" style="shape=rect;html=1;fillColor=#eeeeee;" vertex="1" parent="1">
          <mxGeometry x="220" y="585" width="20" height="50" as="geometry" />
        </mxCell>
        <mxCell id="4Dx3WZbP61t2vSIbmsnp-32" value="6:Validation Données" style="edgeStyle=orthogonalEdgeStyle;rounded=0;orthogonalLoop=1;jettySize=auto;html=1;exitX=1;exitY=0;exitDx=0;exitDy=0;entryX=1;entryY=0;entryDx=0;entryDy=0;" edge="1" parent="1">
          <mxGeometry x="0.1429" y="60" relative="1" as="geometry">
            <mxPoint x="600" y="490" as="sourcePoint" />
            <mxPoint x="610" y="510" as="targetPoint" />
            <Array as="points">
              <mxPoint x="630" y="490" />
              <mxPoint x="630" y="510" />
            </Array>
            <mxPoint as="offset" />
          </mxGeometry>
        </mxCell>
        <mxCell id="4Dx3WZbP61t2vSIbmsnp-33" value="" style="shape=rect;html=1;fillColor=#eeeeee;" vertex="1" parent="1">
          <mxGeometry x="590" y="510" width="20" height="40" as="geometry" />
        </mxCell>
      </root>
    </mxGraphModel>
  </diagram>
</mxfile>
